HIERARCHY
ROOT SpineBase
{
  OFFSET 0.000000 0.000000 0.000000
  CHANNELS 6 Xposition Yposition Zposition Zrotation Xrotation Yrotation
  JOINT SpineMid
  {
    OFFSET -0.000000 28.090726 0.000000
    CHANNELS 3 Zrotation Xrotation Yrotation
    JOINT SpineShoulder
    {
      OFFSET 0.045803 20.849559 -0.571933
      CHANNELS 3 Zrotation Xrotation Yrotation
      JOINT Neck
      {
        OFFSET 0.014584 6.886089 -0.482908
        CHANNELS 3 Zrotation Xrotation Yrotation
        JOINT Head
        {
          OFFSET -6.111777 10.399382 4.073716
          CHANNELS 3 Zrotation Xrotation Yrotation
          End Site
          {
            OFFSET 0 0 0
          }
        }
      }
      JOINT ShoulderLeft
      {
        OFFSET -10.359664 -3.179239 13.540838
        CHANNELS 3 Zrotation Xrotation Yrotation
        JOINT ElbowLeft
        {
          OFFSET -0.166625 -28.567534 3.817331
          CHANNELS 3 Zrotation Xrotation Yrotation
          JOINT WristLeft
          {
            OFFSET -1.456412 -24.729230 -4.528768
            CHANNELS 3 Zrotation Xrotation Yrotation
            JOINT HandLeft
            {
              OFFSET -1.009949 -2.482479 0.044557
              CHANNELS 3 Zrotation Xrotation Yrotation
              JOINT HandTipLeft
              {
                OFFSET 0.241666 -4.369078 -0.290762
                CHANNELS 3 Zrotation Xrotation Yrotation
                End Site
                {
                  OFFSET 0 0 0
                }
              }
              JOINT ThumbLeft
              {
                OFFSET -1.913717 0.633229 -0.908698
                CHANNELS 3 Zrotation Xrotation Yrotation
                End Site
                {
                  OFFSET 0 0 0
                }
              }
            }
          }
        }
      }
      JOINT ShoulderRight
      {
        OFFSET 6.978562 -3.215079 -13.325267
        CHANNELS 3 Zrotation Xrotation Yrotation
        JOINT ElbowRight
        {
          OFFSET 2.886231 -20.685262 -6.744859
          CHANNELS 3 Zrotation Xrotation Yrotation
          JOINT WristRight
          {
            OFFSET -5.291263 -20.956337 -2.054236
            CHANNELS 3 Zrotation Xrotation Yrotation
            JOINT HandRight
            {
              OFFSET -2.605806 -8.708545 1.184918
              CHANNELS 3 Zrotation Xrotation Yrotation
              JOINT HandTipRight
              {
                OFFSET -2.416731 -6.842662 -0.999871
                CHANNELS 3 Zrotation Xrotation Yrotation
                End Site
                {
                  OFFSET 0 0 0
                }
              }
              JOINT ThumbRight
              {
                OFFSET 2.941842 -0.019255 -0.254344
                CHANNELS 3 Zrotation Xrotation Yrotation
                End Site
                {
                  OFFSET 0 0 0
                }
              }
            }
          }
        }
      }
    }
  }
  JOINT HipLeft
  {
    OFFSET -3.685398 -0.001660 2.040052
    CHANNELS 3 Zrotation Xrotation Yrotation
    JOINT KneeLeft
    {
      OFFSET 0.748126 -35.153322 5.192720
      CHANNELS 3 Zrotation Xrotation Yrotation
      JOINT AnkleLeft
      {
        OFFSET 6.158885 -30.627880 3.760726
        CHANNELS 3 Zrotation Xrotation Yrotation
        JOINT FootLeft
        {
          OFFSET -2.869751 -7.846899 -3.101820
          CHANNELS 3 Zrotation Xrotation Yrotation
          End Site
          {
            OFFSET 0 0 0
          }
        }
      }
    }
  }
  JOINT HipRight
  {
    OFFSET 3.387762 1.617329 -8.924284
    CHANNELS 3 Zrotation Xrotation Yrotation
    JOINT KneeRight
    {
      OFFSET 8.387325 -35.919120 -4.335235
      CHANNELS 3 Zrotation Xrotation Yrotation
      JOINT AnkleRight
      {
        OFFSET 8.584625 -31.777937 -2.499965
        CHANNELS 3 Zrotation Xrotation Yrotation
        JOINT FootRight
        {
          OFFSET -1.946526 -6.662000 -7.907206
          CHANNELS 3 Zrotation Xrotation Yrotation
          End Site
          {
            OFFSET 0 0 0
          }
        }
      }
    }
  }
}
MOTION
Frames: 13
Frame Time: 0.033333
15.328562 75.650898 320.110519 -5.010204 0.744923 72.089666 -0.701239 0.132012 -72.233056 -0.233353 -0.217291 -0.255383 0.439938 -1.047803 1.728895 0.000000 0.000000 0.000000 8.122140 3.619960 0.624852 -13.819258 6.740113 1.372872 23.519537 15.802823 -12.213376 -18.122691 -26.843097 5.126318 0.000000 0.000000 0.000000 0.000000 0.000000 0.000000 2.223556 1.210047 1.672530 -6.041519 -4.937995 0.175353 7.800195 2.789036 -2.032196 -4.836501 -1.081210 1.535830 0.000000 0.000000 0.000000 0.000000 0.000000 0.000000 4.484537 -2.795711 -71.826432 2.369024 -4.833898 0.230471 -6.596792 -8.391471 5.086720 0.000000 0.000000 0.000000 -0.290566 -6.507796 -72.622913 0.576424 -0.008250 -0.065331 1.426728 -2.277104 -2.064760 0.000000 0.000000 0.000000
15.607396 75.769437 319.219833 -6.707559 0.076738 72.212545 -0.751596 0.240545 -72.439949 -0.193574 -0.239369 -0.333704 -1.181305 -1.677573 2.401288 0.000000 0.000000 0.000000 8.519206 4.329821 0.545660 -12.980402 2.619063 1.527462 30.154272 24.538021 -17.968674 -23.371650 -37.205384 3.550497 0.000000 0.000000 0.000000 0.000000 0.000000 0.000000 2.068712 2.009245 2.483567 -5.249674 -5.745681 -0.302962 7.074649 -0.391540 -1.447402 -4.649536 2.925597 1.214882 0.000000 0.000000 0.000000 0.000000 0.000000 0.000000 4.998384 -3.615520 -72.010257 3.268550 -5.112905 0.254598 -6.674070 -7.030112 5.055107 0.000000 0.000000 0.000000 -0.360216 -7.131272 -72.941463 2.078443 0.288069 -0.227022 1.393102 -2.723932 -1.983001 0.000000 0.000000 0.000000
16.284049 75.520479 317.715403 -8.603777 -0.549697 70.775167 -0.690729 0.231217 -71.102485 -0.051085 -0.219766 -0.406873 -3.749525 -3.283928 2.863966 0.000000 0.000000 0.000000 7.125457 3.967507 0.339685 -10.067104 2.302086 2.183374 35.177596 29.333664 -22.482882 -26.047360 -42.551885 3.051086 0.000000 0.000000 0.000000 0.000000 0.000000 0.000000 0.953899 2.369817 3.604784 -4.407588 -6.472148 -0.984760 8.428761 -2.882771 -1.130337 -6.857243 5.365378 1.583789 0.000000 0.000000 0.000000 0.000000 0.000000 0.000000 4.011198 -4.624584 -70.907675 4.652245 -3.934520 0.278274 -6.394400 -3.768968 4.299599 0.000000 0.000000 0.000000 -0.000291 -7.498120 -71.558524 3.860910 0.070915 -0.563977 1.462977 -3.220305 -1.796902 0.000000 0.000000 0.000000
17.181649 74.891068 315.748767 -10.510356 -0.944206 68.302519 -0.526919 0.062636 -68.722721 0.156493 -0.164403 -0.466143 -6.998843 -5.877767 2.821747 0.000000 0.000000 0.000000 3.920915 2.326530 -0.076460 -5.339277 3.607229 3.152410 39.894013 33.883246 -27.573086 -28.289212 -48.133290 2.524577 0.000000 0.000000 0.000000 0.000000 0.000000 0.000000 -0.211595 2.174324 4.602777 -4.129509 -6.463195 -1.626652 10.598627 -5.716683 -0.760856 -10.605582 8.620133 2.324771 0.000000 0.000000 0.000000 0.000000 0.000000 0.000000 1.896729 -5.923006 -69.046281 6.201622 -1.824713 0.194688 -6.859061 -0.386076 3.876855 0.000000 0.000000 0.000000 0.060752 -8.008430 -69.247503 5.466904 0.009800 -0.882539 1.531595 -3.481359 -1.397792 0.000000 0.000000 0.000000
17.810015 74.064231 313.696318 -12.487752 -1.045800 64.151700 -0.433923 -0.196216 -64.659461 0.210978 -0.185182 -0.542556 -9.888298 -8.677650 2.360557 0.000000 0.000000 0.000000 -0.119509 -0.278525 -0.816242 0.545284 8.020600 4.208551 41.787135 32.371391 -27.262123 -30.082685 -46.684995 2.403711 0.000000 0.000000 0.000000 0.000000 0.000000 0.000000 -1.615978 1.893921 5.766891 -3.562302 -6.169984 -2.462929 13.873415 -8.630299 -0.238134 -16.387254 12.699380 3.651555 0.000000 0.000000 0.000000 0.000000 0.000000 0.000000 0.063478 -8.328635 -65.541883 6.929416 0.366212 -0.084368 -7.026103 3.158085 3.350591 0.000000 0.000000 0.000000 0.399339 -9.180735 -65.320562 6.342688 -0.087119 -1.126267 1.837836 -3.396190 -1.155232 0.000000 0.000000 0.000000
18.801676 73.202654 311.554638 -13.858680 -1.012403 59.372595 -0.372017 -0.423139 -59.937038 0.266125 -0.177520 -0.591528 -13.424777 -11.775404 1.382059 0.000000 0.000000 0.000000 -4.652453 -3.498281 -1.927942 6.608911 14.272676 4.891318 39.548515 31.489965 -26.055726 -25.126926 -42.337893 6.265768 0.000000 0.000000 0.000000 0.000000 0.000000 0.000000 -4.159888 0.963373 6.966251 -1.198224 -4.853018 -3.470614 16.148709 -10.143573 0.186935 -21.047234 13.561464 5.075669 0.000000 0.000000 0.000000 0.000000 0.000000 0.000000 -1.979442 -10.091495 -61.620455 7.855553 2.315807 -0.424066 -7.670173 2.378459 4.795626 0.000000 0.000000 0.000000 0.487622 -9.716409 -60.750581 7.187467 -0.247024 -1.406223 2.227799 -3.114511 -0.790782 0.000000 0.000000 0.000000
20.010233 72.408451 309.628225 -14.728982 -1.012993 54.683113 -0.524981 -0.388128 -55.302132 0.202720 -0.203321 -0.644826 -18.269005 -15.324536 -0.094644 0.000000 0.000000 0.000000 -8.019738 -5.180485 -2.849005 11.586554 18.539253 5.044157 33.861375 30.254792 -23.692140 -17.610139 -37.704031 10.481618 0.000000 0.000000 0.000000 0.000000 0.000000 0.000000 -6.898203 0.158310 8.226765 1.792882 -3.989176 -4.574223 17.848828 -10.086264 0.222070 -23.640073 13.384007 5.651256 0.000000 0.000000 0.000000 0.000000 0.000000 0.000000 -3.680790 -11.188862 -57.774247 8.969063 3.740925 -0.743149 -7.239858 1.851665 5.711928 0.000000 0.000000 0.000000 0.078484 -9.700124 -56.324630 8.243189 -0.285347 -1.730075 2.613574 -2.403246 -0.446788 0.000000 0.000000 0.000000
20.855035 72.091804 308.153369 -15.897221 -1.299194 51.226428 -0.345684 -0.667196 -51.934671 0.136094 -0.325568 -0.704712 -24.374341 -18.801389 -1.914637 0.000000 0.000000 0.000000 -9.605021 -5.679550 -3.281777 14.748732 21.626621 4.897770 24.427330 30.817789 -22.069575 -6.372578 -35.306061 15.988168 0.000000 0.000000 0.000000 0.000000 0.000000 0.000000 -9.209652 -0.371658 9.328104 4.489078 -3.045618 -5.517554 20.284695 -8.491443 0.016215 -26.165934 11.073742 5.637555 0.000000 0.000000 0.000000 0.000000 0.000000 0.000000 -3.798918 -12.165084 -54.855712 9.447850 3.869592 -1.037498 -7.088354 1.197748 6.941114 0.000000 0.000000 0.000000 0.721331 -10.173164 -53.023024 8.461568 -0.674191 -1.959927 3.105238 -1.682466 -0.237390 0.000000 0.000000 0.000000
21.518018 71.787620 307.357794 -16.448301 -1.789589 48.407090 -0.304301 -0.764752 -49.217377 0.011357 -0.489115 -0.756358 -30.540189 -21.766930 -4.057126 0.000000 0.000000 0.000000 -9.389909 -4.754876 -3.052420 15.661547 22.305163 4.722020 14.050077 27.725899 -18.346575 3.263153 -26.840511 18.864004 0.000000 0.000000 0.000000 0.000000 0.000000 0.000000 -11.331480 -1.142230 10.134062 7.236051 -1.515831 -6.225504 20.126437 -5.464203 -0.912451 -25.497995 8.713719 4.842531 0.000000 0.000000 0.000000 0.000000 0.000000 0.000000 -3.148355 -12.116921 -52.202121 9.690578 3.133526 -1.237268 -6.145186 1.087341 7.451745 0.000000 0.000000 0.000000 1.512092 -9.886954 -50.188078 8.462514 -1.335820 -2.178808 3.527256 -1.159427 0.067719 0.000000 0.000000 0.000000
22.227972 71.544961 306.527511 -16.912323 -2.315086 44.924700 -0.213837 -0.828030 -45.836150 -0.095062 -0.626516 -0.799755 -35.285853 -23.803684 -5.869037 0.000000 0.000000 0.000000 -7.848660 -3.384977 -2.536998 14.727895 21.500114 4.678854 8.891695 25.716783 -16.509550 6.645391 -21.138898 19.027156 0.000000 0.000000 0.000000 0.000000 0.000000 0.000000 -13.243631 -1.874568 10.840066 9.665756 -0.558558 -6.852218 19.587614 -2.352635 -1.948767 -25.834321 7.337308 4.438208 0.000000 0.000000 0.000000 0.000000 0.000000 0.000000 -2.567725 -12.075727 -48.921627 10.121638 2.905921 -1.394595 -5.205037 0.857477 7.714434 0.000000 0.000000 0.000000 2.474708 -9.162777 -46.560900 8.650514 -2.306512 -2.485627 3.734872 -0.689084 0.603592 0.000000 0.000000 0.000000
22.963688 71.403636 306.031780 -16.828199 -2.772286 44.535416 -0.218342 -0.780555 -45.506510 -0.223784 -0.751071 -0.820557 -38.997824 -25.084149 -7.147201 0.000000 0.000000 0.000000 -7.643988 -2.867175 -2.369052 14.506821 21.216438 4.708540 7.303022 24.304073 -15.548282 8.859277 -19.732862 18.958949 0.000000 0.000000 0.000000 0.000000 0.000000 0.000000 -14.745646 -2.311365 11.322010 11.870366 0.823789 -7.398729 17.347413 -3.164886 -1.795385 -23.334756 7.447776 4.431471 0.000000 0.000000 0.000000 0.000000 0.000000 0.000000 -2.372093 -10.850157 -48.510305 10.669875 1.694550 -1.482659 -4.795638 1.330593 7.923535 0.000000 0.000000 0.000000 1.709260 -8.117516 -46.216803 9.549606 -2.641906 -2.803082 3.722865 -0.442590 1.266751 0.000000 0.000000 0.000000
23.488677 71.436388 305.921611 -16.418014 -3.207988 44.538812 -0.379600 -0.695044 -45.557304 -0.306884 -0.860978 -0.826421 -41.924804 -25.946565 -8.160942 0.000000 0.000000 0.000000 -7.596643 -2.281175 -2.184538 14.162737 20.943444 4.752241 10.288350 24.753685 -16.086884 7.111943 -23.938935 18.544929 0.000000 0.000000 0.000000 0.000000 0.000000 0.000000 -14.996807 -2.639408 11.238567 13.231417 2.973264 -7.531008 12.882312 -5.277507 -1.524440 -18.111415 8.431763 4.347810 0.000000 0.000000 0.000000 0.000000 0.000000 0.000000 -2.074954 -9.461546 -48.352757 10.966233 0.319033 -1.540649 -4.006993 1.969247 7.769158 0.000000 0.000000 0.000000 0.940639 -6.730887 -46.105615 10.574992 -3.191824 -3.149962 3.521879 -0.362739 1.911889 0.000000 0.000000 0.000000
24.052326 71.307412 305.589409 -16.020935 -3.505233 43.438513 -0.450723 -0.619600 -44.473211 -0.252116 -0.895301 -0.813697 -43.063485 -26.248466 -8.672404 0.000000 0.000000 0.000000 -7.942297 -1.969987 -2.105628 14.166434 20.945020 4.753907 13.360706 22.198714 -15.259690 3.616851 -22.654106 16.502293 0.000000 0.000000 0.000000 0.000000 0.000000 0.000000 -14.551466 -2.972325 10.782015 12.695976 4.030289 -7.142044 10.863406 -5.763905 -1.694768 -15.820399 7.084818 4.631850 0.000000 0.000000 0.000000 0.000000 0.000000 0.000000 -2.115818 -8.746425 -47.224972 11.193931 -0.357014 -1.643498 -3.357638 3.691515 7.197856 0.000000 0.000000 0.000000 0.326524 -5.415538 -44.814846 11.500596 -3.880836 -3.502331 3.310711 -0.094557 2.537072 0.000000 0.000000 0.000000
